# Blender 3.3.16
# www.blender.org
mtllib table.mtl
o Cube
v -1.000000 0.092780 2.305860
v -1.000000 -0.092780 2.305860
v -1.000000 0.092780 -2.305860
v -1.000000 -0.092780 -2.305860
v 1.000000 0.092780 2.305860
v 1.000000 -0.092780 2.305860
v 1.000000 0.092780 -2.305860
v 1.000000 -0.092780 -2.305860
vn -1.0000 -0.0000 -0.0000
vn -0.0000 -0.0000 -1.0000
vn 1.0000 -0.0000 -0.0000
vn -0.0000 -0.0000 1.0000
vn -0.0000 1.0000 -0.0000
vn -0.0000 -1.0000 -0.0000
vt 0.000000 0.500000
vt 0.500000 0.166667
vt 0.500000 0.333333
vt 0.000000 0.666667
vt 0.333333 0.666667
vt 0.333333 0.166667
vt 0.333333 0.333333
vt 0.500000 0.000000
vt 0.333333 0.333333
vt 0.333333 0.500000
vt 0.333333 0.333333
vt 0.166667 0.500000
vt 0.666667 0.166667
vt 0.333333 0.500000
vt 0.166667 0.666667
vt 0.166667 0.333333
vt 0.500000 0.333333
vt 0.666667 0.000000
vt 0.500000 0.500000
vt 0.166667 0.500000
s 0
f 1/2/1 3/6/1 4/9/1 2/3/1
f 3/7/2 7/16/2 8/20/2 4/10/2
f 7/17/3 5/11/3 6/14/3 8/19/3
f 5/12/4 1/1/4 2/4/4 6/15/4
f 3/8/5 1/2/5 5/13/5 7/18/5
f 8/20/6 6/15/6 2/5/6 4/10/6
o Cube.001
v 0.889980 -0.006205 1.942130
v 0.889980 -1.991859 1.942130
v 0.889980 -0.006205 2.114158
v 0.889980 -1.991859 2.114158
v 0.717952 -0.006205 1.942130
v 0.717952 -1.991859 1.942130
v 0.717952 -0.006205 2.114158
v 0.717952 -1.991859 2.114158
vn 1.0000 -0.0000 -0.0000
vn -0.0000 -0.0000 1.0000
vn -1.0000 -0.0000 -0.0000
vn -0.0000 -0.0000 -1.0000
vn -0.0000 1.0000 -0.0000
vn -0.0000 -1.0000 -0.0000
vt 0.666667 0.166667
vt 0.500000 0.500000
vt 0.000000 0.833333
vt 0.666667 0.333333
vt 0.500000 0.666667
vt 0.833333 0.166667
vt 0.500000 0.166667
vt 0.500000 0.500000
vt 0.000000 0.666667
vt 0.500000 0.333333
vt 0.500000 0.666667
vt 0.833333 0.000000
vt 0.500000 0.333333
vt 0.666667 0.500000
vt 0.166667 0.833333
vt 0.500000 0.500000
vt 0.666667 0.666667
vt 0.666667 0.166667
vt 0.333333 0.500000
vt 0.666667 0.333333
vt 0.166667 0.666667
vt 0.333333 0.666667
vt 0.666667 0.500000
vt 0.666667 0.000000
s 0
f 9/21/7 11/27/7 12/30/7 10/24/7
f 11/28/8 15/39/8 16/42/8 12/31/8
f 15/40/9 13/33/9 14/36/9 16/43/9
f 13/34/10 9/22/10 10/25/10 14/37/10
f 11/29/11 9/23/11 13/35/11 15/41/11
f 16/44/12 14/38/12 10/26/12 12/32/12
o Cube.002
v -0.712482 -0.006205 1.942130
v -0.712482 -1.991859 1.942130
v -0.712482 -0.006205 2.114158
v -0.712482 -1.991859 2.114158
v -0.884510 -0.006205 1.942130
v -0.884510 -1.991859 1.942130
v -0.884510 -0.006205 2.114158
v -0.884510 -1.991859 2.114158
vn 1.0000 -0.0000 -0.0000
vn -0.0000 -0.0000 1.0000
vn -1.0000 -0.0000 -0.0000
vn -0.0000 -0.0000 -1.0000
vn -0.0000 1.0000 -0.0000
vn -0.0000 -1.0000 -0.0000
vt 0.833333 0.166667
vt 0.666667 0.333333
vt 0.666667 0.666667
vt 0.833333 0.333333
vt 0.666667 0.500000
vt 0.666667 0.833333
vt 0.666667 0.166667
vt 0.333333 0.666667
vt 0.666667 0.500000
vt 0.666667 0.333333
vt 0.333333 0.833333
vt 0.666667 0.666667
vt 0.333333 0.666667
vt 0.833333 0.333333
vt 0.833333 0.666667
vt 0.333333 0.833333
vt 0.833333 0.500000
vt 0.500000 0.833333
vt 0.166667 0.666667
vt 0.500000 0.666667
vt 0.833333 0.500000
vt 0.166667 0.833333
vt 0.500000 0.833333
vt 0.500000 0.666667
s 0
f 17/45/13 19/51/13 20/54/13 18/48/13
f 19/52/14 23/63/14 24/66/14 20/55/14
f 23/64/15 21/57/15 22/60/15 24/67/15
f 21/58/16 17/46/16 18/49/16 22/61/16
f 19/53/17 17/47/17 21/59/17 23/65/17
f 24/68/18 22/62/18 18/50/18 20/56/18
o Cube.003
v 0.884510 -0.006205 -2.192550
v 0.884510 -1.991859 -2.192550
v 0.884510 -0.006205 -2.020522
v 0.884510 -1.991859 -2.020522
v 0.712482 -0.006205 -2.192550
v 0.712482 -1.991859 -2.192550
v 0.712482 -0.006205 -2.020522
v 0.712482 -1.991859 -2.020522
vn 1.0000 -0.0000 -0.0000
vn -0.0000 -0.0000 1.0000
vn -1.0000 -0.0000 -0.0000
vn -0.0000 -0.0000 -1.0000
vn -0.0000 1.0000 -0.0000
vn -0.0000 -1.0000 -0.0000
vt 0.166667 0.000000
vt 0.166667 0.166667
vt 0.000000 0.500000
vt 0.166667 0.166667
vt 0.166667 0.333333
vt 0.500000 0.166667
vt 0.000000 0.000000
vt 0.166667 0.166667
vt 0.000000 0.333333
vt 0.000000 0.166667
vt 0.166667 0.333333
vt 0.500000 0.000000
vt 0.166667 0.000000
vt 0.333333 0.166667
vt 0.166667 0.500000
vt 0.166667 0.166667
vt 0.333333 0.333333
vt 0.333333 0.166667
vt 0.000000 0.166667
vt 0.333333 0.000000
vt 0.166667 0.333333
vt 0.000000 0.333333
vt 0.333333 0.166667
vt 0.333333 0.000000
s 0
f 25/69/19 27/75/19 28/78/19 26/72/19
f 27/76/20 31/87/20 32/90/20 28/79/20
f 31/88/21 29/81/21 30/84/21 32/91/21
f 29/82/22 25/70/22 26/73/22 30/85/22
f 27/77/23 25/71/23 29/83/23 31/89/23
f 32/92/24 30/86/24 26/74/24 28/80/24
o Cube.004
v -0.712482 -0.006205 -2.192550
v -0.712482 -1.991859 -2.192550
v -0.712482 -0.006205 -2.020522
v -0.712482 -1.991859 -2.020522
v -0.884510 -0.006205 -2.192550
v -0.884510 -1.991859 -2.192550
v -0.884510 -0.006205 -2.020522
v -0.884510 -1.991859 -2.020522
vn 1.0000 -0.0000 -0.0000
vn -0.0000 -0.0000 1.0000
vn -1.0000 -0.0000 -0.0000
vn -0.0000 -0.0000 -1.0000
vn -0.0000 1.0000 -0.0000
vn -0.0000 -1.0000 -0.0000
vt 0.833333 0.666667
vt 0.833333 0.166667
vt 0.166667 1.000000
vt 0.833333 0.833333
vt 0.833333 0.333333
vt 0.500000 1.000000
vt 0.666667 0.666667
vt 1.000000 0.000000
vt 0.166667 0.833333
vt 0.666667 0.833333
vt 1.000000 0.166667
vt 0.500000 0.833333
vt 0.000000 0.833333
vt 1.000000 0.166667
vt 0.333333 1.000000
vt 0.000000 1.000000
vt 1.000000 0.333333
vt 0.333333 1.000000
vt 0.833333 0.000000
vt 0.166667 0.833333
vt 0.333333 0.833333
vt 0.833333 0.166667
vt 0.166667 1.000000
vt 0.333333 0.833333
s 0
f 33/93/25 35/99/25 36/102/25 34/96/25
f 35/100/26 39/111/26 40/114/26 36/103/26
f 39/112/27 37/105/27 38/108/27 40/115/27
f 37/106/28 33/94/28 34/97/28 38/109/28
f 35/101/29 33/95/29 37/107/29 39/113/29
f 40/116/30 38/110/30 34/98/30 36/104/30
